<svg width="69" height="29" viewBox="0 0 69 29" fill="none" xmlns="http://www.w3.org/2000/svg">
<path d="M12.5375 3.67431C11.731 4.63525 10.4462 5.39671 9.1635 5.28517C8.99405 3.98962 9.63324 2.60183 10.3711 1.7417C11.1755 0.761459 12.5826 0.0579138 13.7237 0C13.8588 1.35347 13.3311 2.68334 12.5397 3.67431H12.5375ZM13.7108 5.54042C11.8468 5.42673 10.2467 6.61075 9.36298 6.61075C8.45995 6.61075 7.10649 5.59619 5.6329 5.6305C3.72175 5.6541 1.935 6.74588 0.963337 8.5026C-1.05935 11.9967 0.437823 17.1704 2.38115 20.0189C3.33137 21.4259 4.46819 22.9682 5.96752 22.9253C7.38533 22.8674 7.95589 21.9879 9.66542 21.9879C11.3964 21.9879 11.8876 22.9253 13.3976 22.891C14.9484 22.8674 15.9308 21.4839 16.881 20.0768C17.9642 18.4788 18.4104 16.913 18.434 16.8357C18.4104 16.8014 15.4289 15.6517 15.4075 12.1876C15.3839 9.28122 17.7519 7.89772 17.8527 7.81836C16.5228 5.80854 14.4229 5.59619 13.7087 5.54256L13.7108 5.54042ZM24.4699 1.60657V22.7451H27.7195V15.5187H32.2132C36.3122 15.5187 39.195 12.6702 39.195 8.55837C39.195 4.43791 36.3701 1.60872 32.3247 1.60872L24.4699 1.60657ZM27.7195 4.37785H31.4624C34.2766 4.37785 35.8875 5.89648 35.8875 8.56695C35.8875 11.2374 34.2766 12.7689 31.441 12.7689H27.7195V4.37785ZM45.1129 22.9017C47.1571 22.9017 49.0446 21.8635 49.9069 20.2076H49.9755V22.7451H52.9785V12.2198C52.9785 9.18255 50.5676 7.20705 46.8461 7.20705C43.4055 7.20705 40.8573 9.20615 40.7694 11.9431H43.6844C43.9311 10.6368 45.1151 9.78743 46.7581 9.78743C48.7465 9.78743 49.8533 10.7248 49.8533 12.4472V13.6076L45.81 13.8543C42.0328 14.0881 39.9994 15.641 39.9994 18.3565C39.9994 21.0935 42.1014 22.9038 45.1151 22.9038L45.1129 22.9017ZM45.9967 20.3985C44.2635 20.3985 43.1589 19.5598 43.1589 18.2772C43.1589 16.9473 44.2206 16.1644 46.2412 16.04L49.8511 15.8169V17.0116C49.8511 18.9914 48.1866 20.3985 45.9838 20.3985H45.9967ZM56.9895 28.4979C60.1491 28.4979 61.6377 27.2688 62.9332 23.5709L68.6302 7.41725H65.3356L61.5154 19.8944H61.4468L57.6266 7.41725H54.2311L59.7286 22.8009L59.4369 23.7382C58.9329 25.3147 58.1307 25.9261 56.7 25.9261C56.4426 25.9261 55.9514 25.8939 55.7498 25.8724V28.4099C55.9385 28.4635 56.745 28.4871 56.9788 28.4871L56.9895 28.4979Z" fill="black"/>
</svg>
