<svg width="17" height="15" viewBox="0 0 17 15" fill="none" xmlns="http://www.w3.org/2000/svg">
<path d="M16.116 2.88832C15.3458 1.13607 13.6706 0 11.8991 0C10.1083 0 8.95297 0.789474 8.27903 1.63671C7.60508 0.789474 6.44976 0 4.659 0C2.8875 0 1.21227 1.13607 0.442056 2.88832C-0.385929 4.71759 -0.0393308 6.73941 1.38557 8.31836C4.75528 12.1117 7.73987 14.7882 7.77838 14.8074C7.93243 14.9422 8.10573 15 8.29828 15C8.49084 15 8.66413 14.9422 8.81818 14.8074C8.85669 14.7882 11.822 12.0924 15.211 8.31836C16.5974 6.73941 16.944 4.71759 16.116 2.88832ZM14.0364 7.29782C11.5332 10.0899 9.26105 12.285 8.27903 13.2092C7.297 12.285 5.02485 10.1091 2.52164 7.29782C1.52036 6.16175 1.27004 4.79461 1.82845 3.50449C2.3676 2.32991 3.50367 1.54044 4.659 1.54044C6.9504 1.54044 7.4703 3.25417 7.52806 3.46598C7.60508 3.81258 7.91317 4.04365 8.25977 4.04365C8.60637 4.04365 8.91446 3.79332 9.01073 3.46598C9.0685 3.27343 9.5884 1.54044 11.8798 1.54044C13.0351 1.54044 14.1712 2.32991 14.7103 3.52375C15.288 4.79461 15.0377 6.16175 14.0364 7.29782ZM13.8439 5.06418C13.8631 5.43004 13.5935 5.75738 13.2084 5.77664C13.1892 5.77664 13.1699 5.77664 13.1699 5.77664C12.8233 5.77664 12.5152 5.50706 12.496 5.14121C12.4189 4.04365 11.7065 3.87035 11.5717 3.85109C11.2059 3.79332 10.9555 3.46598 10.994 3.10013C11.0518 2.73427 11.3984 2.48395 11.7643 2.52246C12.4382 2.61874 13.7283 3.27343 13.8439 5.06418ZM12.9196 6.181C13.0544 6.33504 13.1507 6.5276 13.1507 6.72015C13.1507 6.93196 13.0736 7.12452 12.9196 7.25931C12.7848 7.41335 12.573 7.49037 12.3804 7.49037C12.1879 7.49037 11.9761 7.41335 11.8413 7.25931C11.7065 7.12452 11.6102 6.91271 11.6102 6.72015C11.6102 6.5276 11.6872 6.31579 11.8413 6.181C11.9761 6.04621 12.1879 5.94994 12.3804 5.94994C12.573 5.96919 12.7655 6.04621 12.9196 6.181Z" fill="#F9F9F9"/>
</svg>
