<svg width="25" height="25" viewBox="0 0 25 25" fill="none" xmlns="http://www.w3.org/2000/svg">
<path d="M11.6947 16.2107C12.5161 16.5357 13.2661 16.9679 13.9411 17.5054C14.6161 18.0411 15.1929 18.6661 15.6732 19.3732C16.6529 20.8001 17.1806 22.4888 17.1875 24.2196V25H15.625V24.2179C15.6284 23.2943 15.4477 22.3794 15.0936 21.5264C14.7395 20.6735 14.219 19.8996 13.5625 19.25C12.9182 18.6148 12.1604 18.106 11.3286 17.75C10.4641 17.3796 9.53342 17.1882 8.59288 17.1875C7.66934 17.1842 6.75439 17.3648 5.90144 17.7189C5.04849 18.0731 4.27463 18.5935 3.62503 19.25C2.99001 19.8945 2.48125 20.6522 2.12503 21.4839C1.75717 22.3304 1.57146 23.2429 1.56253 24.2179V25H2.9349e-05V24.2179C-0.00453835 22.4858 0.524163 20.7943 1.51431 19.3732C2.50055 17.9503 3.88534 16.8507 5.49467 16.2125C5.12907 15.9613 4.79615 15.6656 4.5036 15.3321C4.21451 15.0039 3.96461 14.6432 3.75895 14.2571C3.5541 13.8715 3.39814 13.4618 3.29467 13.0375C3.18915 12.6053 3.13225 12.1627 3.12503 11.7179C3.12503 10.9625 3.26788 10.2536 3.5536 9.59464C4.11227 8.28914 5.15201 7.24876 6.45717 6.68929C7.1305 6.40265 7.85445 6.25386 8.58625 6.25172C9.31806 6.24957 10.0429 6.39411 10.7179 6.67679C12.0237 7.23589 13.0641 8.27631 13.6232 9.58214C14.0856 10.6695 14.184 11.8772 13.9036 13.025C13.7964 13.4482 13.6393 13.8554 13.4286 14.2464C13.2192 14.6335 12.9696 14.9974 12.6839 15.3321C12.3982 15.6661 12.0679 15.9571 11.6947 16.2107ZM8.59288 15.625C9.13037 15.625 9.63573 15.5232 10.1072 15.3214C11.0419 14.9243 11.7858 14.1797 12.1822 13.2446C12.3947 12.7643 12.5 12.2554 12.5 11.7196C12.5023 11.2083 12.4018 10.7017 12.2046 10.2299C12.0074 9.75813 11.7174 9.33077 11.3518 8.97321C10.9902 8.62063 10.5688 8.33523 10.1072 8.13036C9.63085 7.91762 9.11453 7.80924 8.59288 7.8125C8.05716 7.8125 7.55181 7.91429 7.08038 8.11607C6.14053 8.51694 5.39196 9.26551 4.9911 10.2054C4.78931 10.6768 4.68752 11.1821 4.68752 11.7196C4.68752 12.2554 4.78931 12.7607 4.9911 13.2321C5.19645 13.7036 5.47324 14.1196 5.82324 14.4768C6.18557 14.8429 6.61733 15.1331 7.09321 15.3302C7.5691 15.5274 8.07955 15.6276 8.59466 15.625H8.59288ZM25 0V12.5H21.875L17.1875 17.1875V12.5H15.625V10.9375H18.75V13.4161L21.2286 10.9375H23.4375V1.5625H7.81252V4.36964C7.55061 4.40274 7.28978 4.44383 7.03038 4.49286C6.76439 4.54335 6.5033 4.61684 6.25002 4.7125V0H25Z" fill="#228C22"/>
</svg>
