<svg width="69" height="28" viewBox="0 0 69 28" fill="none" xmlns="http://www.w3.org/2000/svg">
<path d="M32.4574 13.3145V21.303H29.9231V1.57484H36.6445C38.265 1.54099 39.8319 2.15585 40.9969 3.28274C42.1756 4.34299 42.8385 5.861 42.815 7.44623C42.8487 9.04032 42.1847 10.5697 40.9969 11.6333C39.8216 12.7541 38.3708 13.314 36.6445 13.3129H32.4574V13.3145ZM32.4574 4.00368V10.8904H36.7075C37.6496 10.9183 38.5599 10.548 39.215 9.87035C39.8661 9.23729 40.2335 8.36776 40.2335 7.45961C40.2335 6.55146 39.8661 5.68193 39.215 5.04888C38.5678 4.35667 37.6547 3.97548 36.7075 4.0021H32.4574V4.00368ZM48.6549 7.36438C50.5281 7.36438 52.0067 7.86494 53.0907 8.86607C54.1747 9.8672 54.7162 11.2398 54.7152 12.9839V21.303H52.291V19.4299H52.1809C51.1315 20.9725 49.7358 21.7438 47.9938 21.7438C46.5068 21.7438 45.2627 21.303 44.2616 20.4215C43.2886 19.6022 42.7369 18.3878 42.7599 17.1159C42.7599 15.7192 43.2877 14.6084 44.3434 13.7836C45.3991 12.9587 46.8085 12.5453 48.5714 12.5432C50.0763 12.5432 51.3156 12.8186 52.2895 13.3696V12.7903C52.2953 11.9233 51.9109 11.0997 51.2427 10.5472C50.5725 9.94256 49.6991 9.61265 48.7965 9.62321C47.3809 9.62321 46.2607 10.2203 45.4358 11.4145L43.2038 10.0089C44.4316 8.24588 46.2486 7.36438 48.6549 7.36438ZM45.376 17.171C45.3726 17.8254 45.6857 18.4411 46.2166 18.8238C46.7771 19.2647 47.4728 19.4983 48.1858 19.4849C49.2552 19.4832 50.2803 19.0575 51.0365 18.3012C51.876 17.511 52.2958 16.5839 52.2958 15.5198C51.5056 14.8901 50.4037 14.5753 48.9902 14.5753C47.9607 14.5753 47.1023 14.8235 46.4149 15.3199C45.7208 15.8236 45.376 16.4359 45.376 17.171ZM68.6302 7.80513L60.1678 27.2531H57.5517L60.692 20.4483L55.1276 7.80513H57.8822L61.9041 17.5016H61.9592L65.8708 7.80513H68.6302Z" fill="#5F6368"/>
<path d="M22.2163 11.5924C22.2173 10.8201 22.152 10.0491 22.0211 9.28793H11.333V13.6529H17.4547C17.2016 15.0617 16.3839 16.3058 15.1911 17.097V19.9304H18.8446C20.9838 17.9581 22.2163 15.0413 22.2163 11.5924Z" fill="#4285F4"/>
<path d="M11.333 22.6678C14.3914 22.6678 16.9667 21.6635 18.8446 19.932L15.1911 17.0986C14.1742 17.7881 12.8646 18.1816 11.333 18.1816C8.37681 18.1816 5.8677 16.1888 4.97046 13.5034H1.20679V16.4233C3.13058 20.2515 7.04862 22.6676 11.333 22.6678Z" fill="#34A853"/>
<path d="M4.97049 13.5034C4.49615 12.0962 4.49615 10.5723 4.97049 9.16516V6.24521H1.20682C-0.402272 9.44713 -0.402272 13.2214 1.20682 16.4233L4.97049 13.5034Z" fill="#FBBC04"/>
<path d="M11.333 4.48693C12.9492 4.46052 14.511 5.07119 15.6806 6.18695L18.9154 2.95218C16.8642 1.0256 14.1469 -0.0321221 11.333 0.000743585C7.04862 0.000938848 3.13058 2.41705 1.20679 6.2452L4.97046 9.16515C5.8677 6.47974 8.37681 4.48693 11.333 4.48693Z" fill="#EA4335"/>
</svg>
