<svg width="30" height="30" viewBox="0 0 30 30" fill="none" xmlns="http://www.w3.org/2000/svg">
<g clip-path="url(#clip0_715_121)">
<path d="M2.5 15L8.75 20V16.25H20V13.75H8.75V10L2.5 15Z" fill="#EB455F"/>
<path d="M16.2513 3.74875C14.7732 3.74466 13.309 4.03389 11.9434 4.59971C10.5779 5.16552 9.33827 5.99667 8.29626 7.045L10.0638 8.8125C11.7163 7.16 13.9138 6.24875 16.2513 6.24875C18.5888 6.24875 20.7863 7.16 22.4388 8.8125C24.0913 10.465 25.0025 12.6625 25.0025 15C25.0025 17.3375 24.0913 19.535 22.4388 21.1875C20.7863 22.84 18.5888 23.7513 16.2513 23.7513C13.9138 23.7513 11.7163 22.84 10.0638 21.1875L8.29626 22.955C10.42 25.08 13.245 26.2513 16.2513 26.2513C19.2575 26.2513 22.0825 25.08 24.2063 22.955C26.3313 20.8313 27.5025 18.0063 27.5025 15C27.5025 11.9938 26.3313 9.16875 24.2063 7.045C23.1643 5.99667 21.9246 5.16552 20.5591 4.59971C19.1936 4.03389 17.7294 3.74466 16.2513 3.74875Z" fill="#EB455F"/>
</g>
<defs>
<clipPath id="clip0_715_121">
<rect width="30" height="30" fill="white"/>
</clipPath>
</defs>
</svg>
