<svg width="69" height="44" viewBox="0 0 69 44" fill="none" xmlns="http://www.w3.org/2000/svg">
<path d="M64.9699 0H3.66028C1.63876 0 0 1.63876 0 3.66028V39.4395C0 41.461 1.63876 43.0998 3.66028 43.0998H64.9699C66.9914 43.0998 68.6302 41.461 68.6302 39.4395V3.66028C68.6302 1.63876 66.9914 0 64.9699 0Z" fill="black"/>
<path d="M20.2349 38.5857V36.3118C20.2349 35.4397 19.7042 34.8715 18.833 34.8715C18.3755 34.8715 17.8859 35.0234 17.5446 35.512C17.2793 35.0948 16.9041 34.8715 16.3322 34.8715C15.9002 34.8528 15.4878 35.0522 15.2341 35.4022V34.9447H14.5139V38.583H15.2341V36.5012C15.2341 35.8607 15.6129 35.5541 16.1437 35.5541C16.6744 35.5541 16.9773 35.8954 16.9773 36.5012V38.5857H17.6974V36.5012C17.6974 35.8607 18.0763 35.5541 18.607 35.5541C19.1378 35.5541 19.4406 35.8954 19.4406 36.5012V38.5857H20.2349ZM32.0595 34.9849H30.7326V33.8869H30.0143V34.9849H29.2566V35.6255H30.0143V37.3348C30.0143 38.1685 30.3172 38.6617 31.2267 38.6617C31.5713 38.6545 31.909 38.5634 32.2104 38.3963L31.9826 37.7558C31.7781 37.8836 31.541 37.9494 31.3 37.9452C30.9211 37.9452 30.7317 37.7173 30.7317 37.3385V35.5962H32.0585V34.9895L32.0595 34.9849ZM38.8054 34.8715C38.4063 34.8626 38.032 35.0642 37.8198 35.4022V34.9447H37.0997V38.583H37.8198V36.5396C37.8198 35.933 38.1227 35.5541 38.6159 35.5541C38.7824 35.5609 38.9475 35.5863 39.1082 35.6301L39.3361 34.9474C39.1623 34.9036 38.9844 34.8782 38.8054 34.8715ZM28.6106 35.2503C28.2317 34.9849 27.701 34.8715 27.1327 34.8715C26.2231 34.8715 25.6549 35.2888 25.6549 36.0089C25.6549 36.6156 26.0722 36.956 26.8674 37.0704L27.2462 37.1079C27.6635 37.1839 27.9288 37.3358 27.9288 37.5252C27.9288 37.7905 27.6259 37.9827 27.0568 37.9827C26.6222 37.9917 26.1965 37.8587 25.8443 37.6039L25.4655 38.1721C25.9962 38.551 26.6404 38.6297 27.0211 38.6297C28.0826 38.6297 28.6508 38.1374 28.6508 37.4547C28.6508 36.8142 28.1933 36.5076 27.3999 36.3932L27.0211 36.3557C26.6798 36.3182 26.3805 36.2038 26.3805 35.9769C26.3805 35.7115 26.6834 35.5193 27.1007 35.5193C27.5582 35.5193 28.0103 35.7088 28.2381 35.8222L28.6106 35.2503ZM39.6015 36.7666C39.6015 37.8647 40.3216 38.6617 41.4966 38.6617C42.0273 38.6617 42.4062 38.5482 42.785 38.2444L42.4061 37.6762C42.1379 37.8934 41.8042 38.0137 41.4591 38.0175C40.8185 38.0175 40.3216 37.5252 40.3216 36.805C40.3216 36.0849 40.8121 35.5962 41.4591 35.5962C41.8042 35.6 42.1379 35.7203 42.4061 35.9375L42.785 35.3693C42.4062 35.0664 42.0273 34.952 41.4966 34.952C40.3591 34.8761 39.6015 35.6722 39.6015 36.7712V36.7666ZM34.5228 34.8715C33.4613 34.8715 32.7412 35.6292 32.7412 36.7666C32.7412 37.904 33.4989 38.6617 34.5979 38.6617C35.1325 38.673 35.6546 38.4991 36.0757 38.1694L35.6969 37.6386C35.3923 37.8746 35.0205 38.0073 34.6354 38.0175C34.1431 38.0175 33.6123 37.7146 33.5373 37.0704H36.2285V36.7675C36.2285 35.6301 35.5459 34.8724 34.5228 34.8724V34.8715ZM34.4853 35.5541C35.016 35.5541 35.3949 35.8954 35.4324 36.4637H33.4623C33.5757 35.933 33.9198 35.5541 34.4853 35.5541ZM24.6694 36.7666V34.9474H23.9492V35.405C23.6838 35.0636 23.3086 34.8742 22.7742 34.8742C21.7512 34.8742 20.9926 35.6703 20.9926 36.7693C20.9926 37.8683 21.7503 38.6644 22.7742 38.6644C23.305 38.6644 23.6838 38.475 23.9492 38.1337V38.5912H24.6694V36.7666ZM21.7512 36.7666C21.7512 36.0839 22.1685 35.5541 22.8886 35.5541C23.5713 35.5541 23.9867 36.0849 23.9867 36.7666C23.9867 37.4867 23.5292 37.9791 22.8886 37.9791C22.1685 38.0166 21.7512 37.4483 21.7512 36.7666ZM49.7596 34.8715C49.3606 34.8626 48.9863 35.0642 48.7741 35.4022V34.9447H48.054V38.583H48.7732V36.5396C48.7732 35.933 49.0761 35.5541 49.5693 35.5541C49.7357 35.5609 49.9009 35.5863 50.0616 35.6301L50.2895 34.9474C50.1157 34.9036 49.9378 34.8782 49.7587 34.8715H49.7596ZM46.955 36.7666V34.9474H46.2348V35.405C45.9694 35.0636 45.5943 34.8742 45.0599 34.8742C44.0368 34.8742 43.2782 35.6703 43.2782 36.7693C43.2782 37.8683 44.0359 38.6644 45.0599 38.6644C45.5906 38.6644 45.9694 38.475 46.2348 38.1337V38.5912H46.955V36.7666ZM44.0368 36.7666C44.0368 36.0839 44.4541 35.5541 45.1742 35.5541C45.8569 35.5541 46.2723 36.0849 46.2723 36.7666C46.2723 37.4867 45.8148 37.9791 45.1742 37.9791C44.4541 38.0166 44.0368 37.4483 44.0368 36.7666ZM54.27 36.7666V33.5071H53.5499V35.4022C53.2845 35.0609 52.9093 34.8715 52.3749 34.8715C51.3519 34.8715 50.5933 35.6676 50.5933 36.7666C50.5933 37.8656 51.351 38.6617 52.3749 38.6617C52.9057 38.6617 53.2845 38.4723 53.5499 38.131V38.5885H54.27V36.7666ZM51.3519 36.7666C51.3519 36.0839 51.7691 35.5541 52.4893 35.5541C53.1719 35.5541 53.5874 36.0849 53.5874 36.7666C53.5874 37.4867 53.1298 37.9791 52.4893 37.9791C51.7682 38.0175 51.351 37.4492 51.351 36.7666H51.3519Z" fill="white"/>
<path d="M27.7769 7.35626H40.9282V28.8073H27.7769V7.35626Z" fill="#FF5F00"/>
<path d="M29.1037 18.0818C29.1046 13.9011 31.0171 9.95025 34.2958 7.35625C28.7022 2.9583 20.6678 3.59758 15.8401 8.82475C11.0123 14.0519 11.0123 22.1116 15.8401 27.3388C20.6678 32.566 28.7022 33.2053 34.2958 28.8073C31.0171 26.2133 29.1046 22.2625 29.1037 18.0818Z" fill="#EB001B"/>
<path d="M56.392 18.0818C56.3958 23.302 53.4178 28.0657 48.7234 30.3489C44.0289 32.632 38.4429 32.0333 34.3389 28.8073C37.6183 26.2139 39.5311 22.2627 39.5311 18.0818C39.5311 13.9008 37.6183 9.94962 34.3389 7.35625C38.4429 4.13023 44.0289 3.53158 48.7234 5.8147C53.4178 8.09782 56.3958 12.8616 56.392 18.0818Z" fill="#F79E1B"/>
</svg>
