<svg width="29" height="30" viewBox="0 0 29 30" fill="none" xmlns="http://www.w3.org/2000/svg">
<path d="M12.5277 15C12.5277 15.4262 12.6861 15.835 12.968 16.1364C13.2499 16.4378 13.6323 16.6071 14.031 16.6071C14.4297 16.6071 14.8121 16.4378 15.094 16.1364C15.3759 15.835 15.5343 15.4262 15.5343 15C15.5343 14.5738 15.3759 14.165 15.094 13.8636C14.8121 13.5622 14.4297 13.3929 14.031 13.3929C13.6323 13.3929 13.2499 13.5622 12.968 13.8636C12.6861 14.165 12.5277 14.5738 12.5277 15ZM18.7915 15C18.7915 15.4262 18.9498 15.835 19.2318 16.1364C19.5137 16.4378 19.8961 16.6071 20.2948 16.6071C20.6935 16.6071 21.0758 16.4378 21.3578 16.1364C21.6397 15.835 21.7981 15.4262 21.7981 15C21.7981 14.5738 21.6397 14.165 21.3578 13.8636C21.0758 13.5622 20.6935 13.3929 20.2948 13.3929C19.8961 13.3929 19.5137 13.5622 19.2318 13.8636C18.9498 14.165 18.7915 14.5738 18.7915 15ZM6.26394 15C6.26394 15.4262 6.42232 15.835 6.70424 16.1364C6.98617 16.4378 7.36854 16.6071 7.76724 16.6071C8.16594 16.6071 8.54831 16.4378 8.83024 16.1364C9.11216 15.835 9.27054 15.4262 9.27054 15C9.27054 14.5738 9.11216 14.165 8.83024 13.8636C8.54831 13.5622 8.16594 13.3929 7.76724 13.3929C7.36854 13.3929 6.98617 13.5622 6.70424 13.8636C6.42232 14.165 6.26394 14.5738 6.26394 15ZM26.9719 9.1875C26.2641 7.38951 25.2494 5.77567 23.9559 4.38951C22.6715 3.01137 21.1467 1.91592 19.4679 1.16518C17.7454 0.391741 15.9164 0 14.031 0H13.9684C12.0704 0.0100446 10.232 0.41183 8.50323 1.20201C6.83882 1.96045 5.32833 3.05785 4.05596 4.43304C2.77502 5.81585 1.76969 7.42299 1.07441 9.21429C0.35408 11.0692 -0.00921796 13.0413 0.00017768 15.0703C0.0108049 17.3955 0.525368 19.6865 1.50348 21.7634V26.8527C1.50348 27.2612 1.65526 27.6529 1.92544 27.9417C2.19562 28.2306 2.56206 28.3929 2.94414 28.3929H7.70773C9.65042 29.4385 11.7934 29.9886 13.9684 30H14.0341C15.9101 30 17.7297 29.6116 19.4429 28.8516C21.1132 28.1098 22.6323 27.0271 23.9152 25.6641C25.2087 24.2946 26.2265 22.6942 26.9375 20.9096C27.6766 19.0614 28.0524 17.096 28.0618 15.067C28.0712 13.0279 27.7017 11.0491 26.9719 9.1875ZM22.2397 23.8527C20.0442 26.1763 17.1316 27.4554 14.031 27.4554H13.9778C12.0892 27.4453 10.2132 26.9431 8.55647 25.9989L8.2934 25.8482H3.88371V21.1339L3.74277 20.8527C2.85958 19.0815 2.3898 17.0759 2.38041 15.0569C2.36788 11.7188 3.56113 8.58482 5.75031 6.22433C7.93636 3.86384 10.8584 2.55804 13.9809 2.54464H14.0341C15.6001 2.54464 17.119 2.86942 18.5503 3.51228C19.9471 4.13839 21.1999 5.03906 22.2772 6.19085C23.3515 7.33929 24.1971 8.68192 24.7827 10.1752C25.3903 11.7221 25.6941 13.3627 25.6879 15.0569C25.6691 18.3917 24.4445 21.5156 22.2397 23.8527Z" fill="#FBBC04"/>
</svg>
