<svg width="29" height="30" viewBox="0 0 29 30" fill="none" xmlns="http://www.w3.org/2000/svg">
<path d="M26.3158 24.2857V25.7143H2.63158V24.2857L5.26316 21.4286V12.8571C5.26316 8.42857 7.93421 4.52857 11.8421 3.27143C11.8421 3.12857 11.8421 3 11.8421 2.85714C11.8421 2.09938 12.1194 1.37266 12.6129 0.836838C13.1064 0.301019 13.7757 0 14.4737 0C15.1716 0 15.841 0.301019 16.3345 0.836838C16.828 1.37266 17.1053 2.09938 17.1053 2.85714V3.27143C21.0132 4.52857 23.6842 8.42857 23.6842 12.8571V21.4286L26.3158 24.2857ZM17.1053 27.1429C17.1053 27.9006 16.828 28.6273 16.3345 29.1632C15.841 29.699 15.1716 30 14.4737 30C13.7757 30 13.1064 29.699 12.6129 29.1632C12.1194 28.6273 11.8421 27.9006 11.8421 27.1429M24.6711 1.7L22.8026 3.72857C25.0526 6.14286 26.3158 9.42857 26.3158 12.8571H28.9474C28.9474 8.67143 27.4211 4.64286 24.6711 1.7ZM0 12.8571H2.63158C2.63158 9.42857 3.89474 6.14286 6.14474 3.72857L4.27632 1.7C1.52632 4.64286 0 8.67143 0 12.8571Z" fill="#FBBC04"/>
</svg>
