<svg width="26" height="25" viewBox="0 0 26 25" fill="none" xmlns="http://www.w3.org/2000/svg">
<path d="M25.3448 17.737L23.7931 17.0043C23.5776 16.875 23.2759 16.875 23.0603 17.0043L13.7931 21.4008C13.2759 21.6594 12.6293 21.6594 12.1121 21.4008L2.80172 17.0043C2.58621 16.875 2.28448 16.875 2.06896 17.0043L0.517241 17.737C-0.172414 18.0819 -0.172414 18.987 0.517241 19.3319L12.069 24.806C12.5862 25.0646 13.2328 25.0646 13.75 24.806L25.3017 19.3319C26.0345 18.987 26.0345 18.0388 25.3448 17.737Z" fill="#FBBC04"/>
<path d="M25.3448 11.7026L23.75 10.9698C23.5345 10.8405 23.2328 10.8405 23.0172 10.9698L13.7931 15.3664C13.2759 15.625 12.6293 15.625 12.1121 15.3664L2.84483 10.9698C2.62931 10.8405 2.32759 10.8405 2.11207 10.9698L0.517241 11.7026C-0.172414 12.0474 -0.172414 12.9526 0.517241 13.2974L12.069 18.8147C12.5862 19.0733 13.2328 19.0733 13.75 18.8147L25.3017 13.3405C26.0345 12.9957 26.0345 12.0474 25.3448 11.7026Z" fill="#FBBC04"/>
<path d="M0.517241 7.26293L12.069 12.7371C12.5862 12.9957 13.2328 12.9957 13.75 12.7371L25.3017 7.26293C25.9914 6.9181 25.9914 6.01293 25.3017 5.6681L13.75 0.193966C13.2328 -0.0646552 12.5862 -0.0646552 12.069 0.193966L0.517241 5.71121C-0.172414 6.01293 -0.172414 6.96121 0.517241 7.26293Z" fill="#FBBC04"/>
</svg>
