<svg width="69" height="19" viewBox="0 0 69 19" fill="none" xmlns="http://www.w3.org/2000/svg">
<path d="M11.617 0.88776C10.7568 0.296398 9.63434 0 8.24954 0H2.88837C2.46385 0 2.22931 0.212312 2.18476 0.636528L0.00683613 14.3076C-0.0157983 14.4419 0.0177948 14.5647 0.107308 14.6763C0.196309 14.7881 0.308252 14.8438 0.442318 14.8438H2.98884C3.43549 14.8438 3.68098 14.632 3.72604 14.2072L4.32908 10.5216C4.3511 10.343 4.42966 10.1978 4.56372 10.0859C4.69769 9.97429 4.86524 9.90127 5.06629 9.86777C5.26733 9.83459 5.45691 9.8179 5.63594 9.8179C5.81445 9.8179 6.02656 9.82916 6.27267 9.85139C6.51817 9.87371 6.67466 9.88457 6.74174 9.88457C8.6627 9.88457 10.1705 9.34329 11.2652 8.25961C12.3595 7.17633 12.9072 5.67427 12.9072 3.7528C12.9072 2.43499 12.4768 1.48004 11.617 0.88776ZM8.85279 4.99268C8.74074 5.77464 8.45069 6.28816 7.98162 6.53396C7.51244 6.78008 6.84232 6.90247 5.97125 6.90247L4.86545 6.93596L5.4352 3.35061C5.47965 3.10511 5.62477 2.98221 5.87068 2.98221H6.50751C7.4006 2.98221 8.0488 3.11095 8.4509 3.3674C8.85279 3.62447 8.98685 4.16637 8.85279 4.99268Z" fill="#003087"/>
<path d="M68.1943 0H65.7149C65.4686 0 65.3236 0.122902 65.2793 0.368706L63.1012 14.3077L63.0676 14.3747C63.0676 14.4869 63.1124 14.5925 63.2019 14.6931C63.2908 14.7935 63.4029 14.8438 63.5368 14.8438H65.7485C66.1723 14.8438 66.407 14.632 66.4522 14.2072L68.6302 0.50236V0.469075C68.6301 0.156393 68.4844 0 68.1943 0Z" fill="#009CDE"/>
<path d="M38.2387 5.39446C38.2387 5.28303 38.1938 5.17672 38.105 5.07635C38.0154 4.97588 37.9147 4.92538 37.8033 4.92538H35.2232C34.977 4.92538 34.7761 5.03763 34.6201 5.26039L31.0683 10.4878L29.594 5.46164C29.4819 5.10451 29.2364 4.92538 28.8569 4.92538H26.3435C26.2315 4.92538 26.1311 4.97577 26.0423 5.07635C25.9527 5.17672 25.9082 5.28313 25.9082 5.39446C25.9082 5.43952 26.126 6.09817 26.5615 7.37143C26.997 8.645 27.4661 10.0188 27.9688 11.4932C28.4714 12.9674 28.7337 13.7496 28.7561 13.8384C26.9243 16.3405 26.0087 17.6808 26.0087 17.8592C26.0087 18.1499 26.1537 18.2949 26.4443 18.2949H29.0244C29.27 18.2949 29.4709 18.1835 29.6275 17.96L38.1719 5.629C38.2164 5.58465 38.2387 5.50681 38.2387 5.39446Z" fill="#003087"/>
<path d="M62.2636 4.9254H59.7168C59.404 4.9254 59.2146 5.2941 59.1476 6.03131C58.5662 5.13812 57.5057 4.69086 55.9641 4.69086C54.3558 4.69086 52.9873 5.2941 51.8595 6.50038C50.7313 7.70666 50.1675 9.12546 50.1675 10.756C50.1675 12.0742 50.5527 13.124 51.3233 13.9055C52.094 14.6879 53.1271 15.0783 54.4231 15.0783C55.0706 15.0783 55.7296 14.944 56.3997 14.6762C57.0699 14.4082 57.5944 14.0509 57.9748 13.604C57.9748 13.6264 57.9521 13.7268 57.9077 13.9054C57.8627 14.0844 57.8406 14.2187 57.8406 14.3075C57.8406 14.6653 57.9855 14.8436 58.2763 14.8436H60.5885C61.0123 14.8436 61.2584 14.6318 61.3253 14.207L62.6993 5.46155C62.7213 5.32749 62.6878 5.20479 62.5987 5.09295C62.5091 4.98142 62.3976 4.9254 62.2636 4.9254ZM57.8909 11.5265C57.3213 12.085 56.6345 12.3641 55.8303 12.3641C55.1822 12.3641 54.6577 12.1857 54.2554 11.8281C53.8532 11.4712 53.6522 10.9797 53.6522 10.3538C53.6522 9.52776 53.9313 8.82916 54.4899 8.25961C55.0478 7.68996 55.7409 7.40514 56.5675 7.40514C57.1923 7.40514 57.7118 7.58949 58.1255 7.95789C58.5384 8.3266 58.7455 8.8349 58.7455 9.48279C58.7454 10.2869 58.4605 10.9684 57.8909 11.5265Z" fill="#009CDE"/>
<path d="M24.1993 4.9254H21.6527C21.3395 4.9254 21.15 5.2941 21.0829 6.03131C20.4798 5.13812 19.4186 4.69086 17.8997 4.69086C16.2913 4.69086 14.9229 5.2941 13.795 6.50038C12.6667 7.70666 12.1029 9.12546 12.1029 10.756C12.1029 12.0742 12.4883 13.124 13.259 13.9055C14.0297 14.6879 15.0626 15.0783 16.3584 15.0783C16.9835 15.0783 17.6317 14.944 18.3018 14.6762C18.9719 14.4082 19.508 14.0509 19.9101 13.604C19.8205 13.872 19.7761 14.1067 19.7761 14.3075C19.7761 14.6653 19.9212 14.8436 20.2116 14.8436H22.5236C22.9477 14.8436 23.1938 14.6318 23.2608 14.207L24.6346 5.46155C24.6566 5.32749 24.6232 5.20479 24.5341 5.09295C24.4447 4.98142 24.3331 4.9254 24.1993 4.9254ZM19.8265 11.5431C19.2567 12.0911 18.5583 12.3641 17.7323 12.3641C17.0841 12.3641 16.5647 12.1857 16.1741 11.8281C15.783 11.4712 15.5877 10.9797 15.5877 10.3538C15.5877 9.52776 15.8668 8.82916 16.4255 8.25961C16.9835 7.68996 17.6761 7.40514 18.5029 7.40514C19.1281 7.40514 19.6474 7.58949 20.0611 7.95789C20.474 8.3266 20.6809 8.8349 20.6809 9.48279C20.6809 10.3093 20.3961 10.9964 19.8265 11.5431Z" fill="#003087"/>
<path d="M49.6815 0.88776C48.8214 0.296398 47.6991 0 46.3141 0H40.9864C40.5394 0 40.2936 0.212312 40.2492 0.636528L38.0713 14.3076C38.0487 14.4419 38.0822 14.5647 38.1718 14.6763C38.2605 14.7881 38.3727 14.8438 38.5068 14.8438H41.2542C41.5223 14.8438 41.7009 14.6987 41.7904 14.4083L42.3936 10.5216C42.4158 10.343 42.494 10.1978 42.6282 10.0859C42.7623 9.97429 42.9296 9.90127 43.1309 9.86777C43.3318 9.83459 43.5214 9.8179 43.7005 9.8179C43.879 9.8179 44.0911 9.82916 44.3369 9.85139C44.5826 9.87371 44.7394 9.88457 44.806 9.88457C46.7273 9.88457 48.2349 9.34329 49.3296 8.25961C50.4241 7.17633 50.9715 5.67427 50.9715 3.7528C50.9716 2.43499 50.5413 1.48004 49.6815 0.88776ZM46.247 6.3999C45.7555 6.73491 45.0183 6.90236 44.0356 6.90236L42.9633 6.93585L43.533 3.3505C43.5773 3.10501 43.7224 2.98211 43.9685 2.98211H44.5715C45.0628 2.98211 45.4537 3.00443 45.7446 3.04899C46.0345 3.09395 46.3141 3.23324 46.5821 3.46777C46.8504 3.70231 46.9842 4.04316 46.9842 4.4898C46.9842 5.42816 46.7382 6.06458 46.247 6.3999Z" fill="#009CDE"/>
</svg>
