<svg width="22" height="30" viewBox="0 0 22 30" fill="none" xmlns="http://www.w3.org/2000/svg">
<path d="M14.8744 2.18168C13.8575 0.774772 12.4372 0 10.8695 0C9.29345 0 7.86843 0.770084 6.85623 2.16829C5.83306 3.5819 5.33453 5.50309 5.45159 7.57763C5.6836 11.6705 8.11403 14.9999 10.8695 14.9999C13.625 14.9999 16.0512 11.6711 16.2869 7.57897C16.4055 5.52318 15.9038 3.606 14.8744 2.18168Z" fill="#FBBC04"/>
<path d="M20.0666 29.9998H1.67249C1.43173 30.0038 1.1933 29.939 0.974542 29.8101C0.755786 29.6812 0.56221 29.4914 0.407896 29.2545C0.0682317 28.7342 -0.0686791 28.0237 0.0326976 27.3052C0.473739 24.1699 1.85016 21.5363 4.01356 19.6874C5.93554 18.0461 8.37015 17.1428 10.8696 17.1428C13.369 17.1428 15.8036 18.0468 17.7255 19.6874C19.8889 21.5356 21.2654 24.1693 21.7064 27.3045C21.8078 28.023 21.6709 28.7335 21.3312 29.2538C21.177 29.4908 20.9834 29.6807 20.7646 29.8098C20.5459 29.9388 20.3074 30.0037 20.0666 29.9998Z" fill="#FBBC04"/>
</svg>
