<svg width="69" height="44" viewBox="0 0 69 44" fill="none" xmlns="http://www.w3.org/2000/svg">
<path d="M64.9699 0H3.66028C1.63876 0 0 1.63876 0 3.66028V39.4395C0 41.461 1.63876 43.0998 3.66028 43.0998H64.9699C66.9914 43.0998 68.6302 41.461 68.6302 39.4395V3.66028C68.6302 1.63876 66.9914 0 64.9699 0Z" fill="#0E4595"/>
<path d="M25.457 30.5841L28.5098 12.6705H33.3925L30.3376 30.5841H25.457Z" fill="white"/>
<path d="M47.9778 13.0569C47.0104 12.694 45.4947 12.3045 43.6017 12.3045C38.7771 12.3045 35.3785 14.7341 35.3496 18.2162C35.3224 20.7902 37.7758 22.2261 39.6279 23.083C41.5284 23.961 42.1674 24.521 42.1584 25.3051C42.1463 26.5058 40.6406 27.0544 39.2372 27.0544C37.2829 27.0544 36.2446 26.7829 34.6412 26.1141L34.012 25.8293L33.3267 29.8395C34.4671 30.3395 36.576 30.7728 38.7656 30.7952C43.8982 30.7952 47.2301 28.3934 47.268 24.6751C47.2864 22.6373 45.9855 21.0864 43.1686 19.808C41.4619 18.9793 40.4167 18.4263 40.4278 17.5872C40.4278 16.8426 41.3125 16.0464 43.224 16.0464C44.8207 16.0216 45.9772 16.3698 46.8784 16.7327L47.316 16.9394L47.9778 13.0569Z" fill="white"/>
<path d="M60.5424 12.6705H56.7694C55.6006 12.6705 54.726 12.9895 54.2126 14.1561L46.9612 30.5727H52.0884C52.0884 30.5727 52.9268 28.3653 53.1164 27.8807C53.6767 27.8807 58.6575 27.8884 59.3696 27.8884C59.5157 28.5155 59.9637 30.5727 59.9637 30.5727H64.4944L60.5424 12.6705ZM54.5563 24.2377C54.9601 23.2055 56.5016 19.2301 56.5016 19.2301C56.4728 19.2778 56.9024 18.193 57.149 17.5204L57.4791 19.0649C57.4791 19.0649 58.414 23.3409 58.6094 24.2376H54.5563V24.2377Z" fill="white"/>
<path d="M4.19824 12.6705L4.13586 13.0433C6.06584 13.5105 7.78966 14.1865 9.29886 15.0277L13.6313 30.5556L18.7973 30.5495L26.4843 12.6705H21.3122L16.5318 24.8863L16.0225 22.4038C15.9989 22.328 15.9734 22.252 15.9472 22.1759L14.2849 14.1828C13.9893 13.0485 13.1321 12.71 12.0716 12.6705H4.19824Z" fill="white"/>
</svg>
